<?xml version="1.0" standalone="no"?>
<!DOCTYPE svg PUBLIC "-//W3C//DTD SVG 20010904//EN"
 "http://www.w3.org/TR/2001/REC-SVG-20010904/DTD/svg10.dtd">
<svg version="1.0" xmlns="http://www.w3.org/2000/svg"
 width="490.000000pt" height="490.000000pt" viewBox="0 0 490.000000 490.000000"
 preserveAspectRatio="xMidYMid meet">
<metadata>
Created by potrace 1.11, written by Peter Selinger 2001-2013
</metadata>
<g transform="translate(0.000000,490.000000) scale(0.100000,-0.100000)"
fill="#000000" stroke="none">
<path d="M3966 4384 c-152 -37 -377 -175 -595 -367 l-72 -64 -91 28 c-222 70
-438 100 -713 100 -289 1 -526 -32 -772 -107 l-115 -35 -89 86 c-208 197 -372
301 -547 346 -97 25 -173 25 -195 1 -29 -32 -86 -168 -107 -254 -24 -102 -27
-286 -5 -409 25 -143 93 -341 158 -459 10 -19 28 -51 39 -71 l20 -36 -21 -77
c-90 -329 -329 -442 -682 -322 -57 20 -107 32 -111 28 -15 -15 -30 -187 -24
-268 11 -151 61 -335 123 -457 13 -27 23 -51 21 -52 -2 -2 -35 7 -73 21 -39
13 -75 22 -81 20 -6 -3 -18 1 -25 7 -11 10 -11 9 -1 -4 6 -9 9 -18 6 -21 -7
-8 79 -178 134 -263 153 -239 397 -476 648 -630 53 -33 103 -65 109 -72 7 -7
15 -9 19 -6 3 4 6 1 6 -5 0 -7 11 -12 24 -12 13 0 26 -7 30 -15 3 -8 15 -15
26 -15 12 0 35 -7 53 -17 l32 -16 -30 -13 c-16 -6 -33 -10 -37 -7 -5 2 -8 -3
-8 -11 0 -12 -10 -16 -35 -16 l-36 0 22 -29 c16 -22 48 -40 131 -70 60 -23
118 -41 129 -41 11 0 29 -4 39 -10 42 -23 257 -33 441 -21 l180 12 52 -47
c179 -162 413 -245 608 -215 166 25 316 99 459 227 59 53 61 54 93 41 50 -20
448 -16 552 6 44 9 94 17 111 17 16 0 34 4 40 9 5 5 41 19 79 31 124 41 140
68 50 84 -85 15 -170 39 -180 50 -6 6 -9 10 -6 9 2 -2 9 1 15 6 6 5 58 23 116
39 103 28 214 74 225 93 4 5 13 9 21 9 22 0 238 143 324 215 216 181 377 414
428 620 21 83 18 85 -76 44 -74 -33 -82 -19 -39 67 86 172 122 330 114 499 -5
96 -24 206 -39 220 -3 3 -35 -8 -72 -25 -112 -50 -168 -62 -265 -58 -76 3 -96
8 -155 37 -109 56 -201 177 -256 337 l-20 57 39 61 c91 145 165 323 196 473
19 91 22 272 6 360 -25 137 -98 302 -153 348 -35 29 -96 32 -192 9z"/>
</g>
</svg>
